<!--
css  :
.si{ width:60px;height: 60px;fill:#af1259; }
html :
import:<?php //include 'icon.svg'; ?>
use :<svg class="si"><use xlink:href="#si-ant-arrow-left"/></svg> -->
<svg style="display:none">
  <defs>
    <symbol viewBox="0 0 1024 517" id="si-ant-arrow-left">
      <path d="M282 508q9-9 9-22.5t-9-22.5L110 291h882q13 0 22.5-9.5t9.5-22.5-9.5-22.5T992 227H109L281 55q10-9 10-22.5T281 10q-9-10-22.5-10T236 10L9 236q-9 9-9 22.5T9 281l228 227q9 9 22.5 9t22.5-9z"/></symbol>
    <symbol viewBox="0 0 1024 517" id="si-ant-arrow-right">
      <path d="M742 508q-9-9-9-22.5t9-22.5l172-172H32q-13 0-22.5-9.5T0 259t9.5-22.5T32 227h883L743 55q-10-9-10-22.5T743 10q9-10 22.5-10T788 10l227 226q9 9 9 22.5t-9 22.5L787 508q-9 9-22.5 9t-22.5-9z"/></symbol>
    <symbol viewBox="0 0 1010.3333740234375 1024" id="si-ant-aliwangwang-o">
      <path d="M78.333 64q44 2 85 9 94 14 162 46l24 12 25-9q68-24 141-24 88 0 168 34 78 33 137.5 92.5t91.5 136.5q34 80 34 168t-34 168q-32 77-92 137t-137 92q-80 34-168 34t-167-34q-78-33-137.5-92.5t-92.5-136.5q-34-80-34-168 0-59 16-116t46-107l17-27-12-29zm-26-64h-12q-21 1-32 18t-3 36l87 219q-72 118-72 256 0 101 39 193 38 88 106 157 69 68 158 106 92 39 192 39 101 0 193-39 89-37 157-106 69-68 106-157 39-92 39-193t-39-193q-37-88-106-157-68-68-157-106-92-39-193-39-84 0-162 28-55-26-123.5-41t-106.5-18-71-3zm487 431q0 17-12 29t-29 12-29-12-12-29v-74q0-17 12-29t29-12 29 12 12 29v74zm238 0q0 17-12 29t-29 12-29-12-12-29v-74q0-17 12-29t29-12 29 12 12 29v74z"/></symbol>
    <symbol viewBox="0 0 1010.3333129882812 1024.6666259765625" id="si-ant-aliwangwang">
      <path d="M971.333 336.667q-37-88-106-157-68-68-157-106-92-39-193-39-84 0-162 27-39-18-85.5-31.5t-83-18.5-71.5-8.5-51-2.5-22 0q-21 1-32 18t-3 36l87 219q-72 118-72 256 0 101 39 193 38 88 106 157 69 68 158 106 92 39 192 39 101 0 193-39 89-37 157-106 69-68 106-157 39-92 39-193t-39-193zm-432 95q0 17-12 29t-29 12-29-12-12-29v-74q0-17 12-29t29-12 29 12 12 29v74zm238 0q0 17-12 29t-29 12-29-12-12-29v-74q0-17 12-29t29-12 29 12 12 29v74z"/></symbol>
   </defs>
</svg>